# xmcd
#
# Track frame offsets:
# 183
# 13290
# 26628
# 39368
# 51238
# 64270
# 77753
# 92333
# 104905
# 117430
# 131005
# 145683
# 158895
# 170670
# 185883
# 200055
#
# Disc length: 2847 seconds
#
#
# Revision: 4
# Processed by: cddbd v1.5.2PL0 Copyright (c) Steve Scherf et al.
# Submitted via: FreeRIP 2.951 
#
DISCID=ec0b1d10
DTITLE=Various Artist - Mississippi Blues
DYEAR=1991
DGENRE=Blues
TTITLE0=Bukka White - High Fever Blues
TTITLE1=Charlie Patton - Down The Dirt Road
TTITLE2=Big Billy Broonzy - Long Tall Mama
TTITLE3=Robert Johnson - I'm A Steady Rollin' Man
TTITLE4=Mississippi John Hurt - Blue Harvest Blues
TTITLE5=Son House - Walking Blues
TTITLE6=Mississippi Mud Steppers - Jackson Stomp
TTITLE7=Mississippi Jook Band - Dangerous Woman Blues
TTITLE8=Robert Wilkins - New Stockyard Blues
TTITLE9=Big Joe Williams - I'm A Rootin' Hound Dog
TTITLE10=Joe McCoy - When The Levee Breaks
TTITLE11=The Delta Boys - Black Gal Blues
TTITLE12=Frank Edwards - We Got To Get Together
TTITLE13=Fred McDowell - Milk Cow Blues
TTITLE14=Muddy Waters - Hoochie Coochie Man
TTITLE15=William Johnson - Titanic Blues
EXTD=Subtitle: Blues Collection
EXTT0=
EXTT1=
EXTT2=
EXTT3=
EXTT4=
EXTT5=
EXTT6=
EXTT7=
EXTT8=
EXTT9=
EXTT10=
EXTT11=
EXTT12=
EXTT13=
EXTT14=
EXTT15=
PLAYORDER=
